<svg width="1200" height="630" viewBox="0 0 1200 630" fill="none" xmlns="http://www.w3.org/2000/svg">
  <defs>
    <linearGradient id="bgGradient" x1="0%" y1="0%" x2="100%" y2="100%">
      <stop offset="0%" style="stop-color:#0f172a"/>
      <stop offset="50%" style="stop-color:#581c87"/>
      <stop offset="100%" style="stop-color:#0f172a"/>
    </linearGradient>
    <linearGradient id="textGradient" x1="0%" y1="0%" x2="100%" y2="0%">
      <stop offset="0%" style="stop-color:#e9d5ff"/>
      <stop offset="50%" style="stop-color:#fbcfe8"/>
      <stop offset="100%" style="stop-color:#c7d2fe"/>
    </linearGradient>
    <linearGradient id="accentGradient" x1="0%" y1="0%" x2="100%" y2="0%">
      <stop offset="0%" style="stop-color:#9333ea"/>
      <stop offset="100%" style="stop-color:#6366f1"/>
    </linearGradient>
  </defs>
  
  <!-- Background -->
  <rect width="1200" height="630" fill="url(#bgGradient)"/>
  
  <!-- Decorative circles -->
  <circle cx="150" cy="100" r="200" fill="#9333ea" opacity="0.1"/>
  <circle cx="1050" cy="530" r="250" fill="#6366f1" opacity="0.1"/>
  
  <!-- Icon container -->
  <rect x="525" y="120" width="150" height="150" rx="30" fill="url(#accentGradient)"/>
  <path d="M575 170 L625 170 L625 245 L575 245 Z M585 180 L615 180 M585 195 L615 195 M585 210 L610 210 M585 225 L605 225" 
        stroke="white" stroke-width="6" stroke-linecap="round" fill="none"/>
  
  <!-- Main title -->
  <text x="600" y="340" text-anchor="middle" font-family="system-ui, -apple-system, sans-serif" font-size="72" font-weight="900" fill="url(#textGradient)">
    AI Ethics Playbook
  </text>
  
  <!-- Subtitle -->
  <text x="600" y="410" text-anchor="middle" font-family="system-ui, -apple-system, sans-serif" font-size="32" font-weight="600" fill="#c4b5fd">
    for Businesses &amp; Professionals
  </text>
  
  <!-- Tagline -->
  <text x="600" y="480" text-anchor="middle" font-family="system-ui, -apple-system, sans-serif" font-size="24" fill="#a78bfa" opacity="0.9">
    Comprehensive guides • Interactive quizzes • AI-powered assistant
  </text>
  
  <!-- Bottom accent bar -->
  <rect x="400" y="550" width="400" height="6" rx="3" fill="url(#accentGradient)"/>
</svg>

